<svg xmlns="http://www.w3.org/2000/svg" xmlns:xlink="http://www.w3.org/1999/xlink" width="500" zoomAndPan="magnify" viewBox="0 0 375 374.999991" height="500" preserveAspectRatio="xMidYMid meet" version="1.0"><defs><clipPath id="756419d07d"><path d="M 179 103.503906 L 288 103.503906 L 288 203 L 179 203 Z M 179 103.503906 " clip-rule="nonzero"/></clipPath><clipPath id="db49ad272f"><path d="M 71 103.503906 L 180 103.503906 L 180 203 L 71 203 Z M 71 103.503906 " clip-rule="nonzero"/></clipPath><clipPath id="398f297495"><path d="M 26.1875 148 L 126 148 L 126 257 L 26.1875 257 Z M 26.1875 148 " clip-rule="nonzero"/></clipPath><clipPath id="40827f6806"><path d="M 233 148 L 332.9375 148 L 332.9375 257 L 233 257 Z M 233 148 " clip-rule="nonzero"/></clipPath><clipPath id="c5f3bb18f7"><path d="M 156 234 L 203 234 L 203 280.503906 L 156 280.503906 Z M 156 234 " clip-rule="nonzero"/></clipPath><clipPath id="2d3f19abab"><path d="M 156 234 L 203 234 L 203 280.503906 L 156 280.503906 Z M 156 234 " clip-rule="nonzero"/></clipPath></defs><g clip-path="url(#756419d07d)"><path fill="#f8da49" d="M 233.71875 202.65625 L 287.875 148.425781 C 260.152344 120.675781 221.859375 103.503906 179.5625 103.503906 L 179.5625 180.195312 C 200.710938 180.195312 219.855469 188.78125 233.71875 202.65625 Z M 233.71875 202.65625 " fill-opacity="1" fill-rule="nonzero"/></g><g clip-path="url(#db49ad272f)"><path fill="#d6df48" d="M 179.5625 180.195312 L 179.5625 103.503906 C 137.265625 103.503906 98.972656 120.675781 71.253906 148.429688 L 125.410156 202.660156 C 139.269531 188.785156 158.414062 180.199219 179.566406 180.199219 Z M 179.5625 180.195312 " fill-opacity="1" fill-rule="nonzero"/></g><g clip-path="url(#398f297495)"><path fill="#7fbe59" d="M 125.40625 202.65625 L 71.25 148.425781 C 43.535156 176.1875 26.390625 214.53125 26.390625 256.886719 L 102.976562 256.886719 C 102.976562 235.707031 111.550781 216.535156 125.40625 202.65625 Z M 125.40625 202.65625 " fill-opacity="1" fill-rule="nonzero"/></g><g clip-path="url(#40827f6806)"><path fill="#de3a45" d="M 256.148438 256.886719 L 332.734375 256.886719 C 332.734375 214.53125 315.589844 176.1875 287.871094 148.429688 L 233.714844 202.660156 C 247.570312 216.535156 256.144531 235.707031 256.144531 256.890625 Z M 256.148438 256.886719 " fill-opacity="1" fill-rule="nonzero"/></g><g clip-path="url(#c5f3bb18f7)"><path fill="#333333" d="M 188.445312 278.554688 C 176.820312 283.679688 163.246094 278.394531 158.128906 266.753906 C 153.007812 255.109375 158.285156 241.515625 169.914062 236.394531 C 175.238281 234.046875 180.976562 233.878906 186.125 235.515625 C 192.203125 237.441406 197.457031 241.886719 200.234375 248.195312 C 203.011719 254.503906 202.730469 261.382812 200.046875 267.175781 C 197.773438 272.085938 193.78125 276.207031 188.453125 278.558594 Z M 188.445312 278.554688 " fill-opacity="1" fill-rule="nonzero"/></g><path fill="#000000" d="M 200.042969 267.175781 C 202.726562 261.382812 203.003906 254.503906 200.230469 248.195312 C 197.457031 241.886719 192.199219 237.441406 186.117188 235.515625 L 193.160156 233.40625 C 198.074219 236.261719 202.15625 240.648438 204.621094 246.25 C 207.085938 251.855469 207.5625 257.832031 206.339844 263.390625 L 200.035156 267.167969 Z M 200.042969 267.175781 " fill-opacity="1" fill-rule="nonzero"/><g clip-path="url(#2d3f19abab)"><path fill="#1a1a1a" d="M 188.445312 278.554688 C 176.820312 283.679688 163.246094 278.394531 158.128906 266.753906 C 153.007812 255.109375 158.285156 241.515625 169.914062 236.394531 C 175.238281 234.046875 180.976562 233.878906 186.125 235.515625 C 192.203125 237.441406 197.457031 241.886719 200.234375 248.195312 C 203.011719 254.503906 202.730469 261.382812 200.046875 267.175781 C 197.773438 272.085938 193.78125 276.207031 188.453125 278.558594 Z M 188.445312 278.554688 " fill-opacity="1" fill-rule="nonzero"/></g><path fill="#1a1a1a" d="M 204.621094 246.257812 C 202.15625 240.652344 198.074219 236.265625 193.160156 233.414062 L 284.773438 206.015625 C 289.867188 204.492188 292.949219 211.5 288.390625 214.230469 L 206.347656 263.398438 C 207.5625 257.839844 207.085938 251.863281 204.625 246.261719 Z M 204.621094 246.257812 " fill-opacity="1" fill-rule="nonzero"/><path fill="#1a1a1a" d="M 186.90625 275.046875 L 171.453125 239.90625 L 186.125 235.519531 C 192.203125 237.445312 197.457031 241.890625 200.234375 248.199219 C 203.011719 254.507812 202.730469 261.390625 200.046875 267.183594 L 186.910156 275.050781 Z M 186.90625 275.046875 " fill-opacity="1" fill-rule="nonzero"/></svg>