<svg xmlns="http://www.w3.org/2000/svg" xmlns:xlink="http://www.w3.org/1999/xlink" width="500" zoomAndPan="magnify" viewBox="0 0 375 374.999991" height="500" preserveAspectRatio="xMidYMid meet" version="1.0"><path fill="#279b48" d="M 158.046875 257.953125 L 158.046875 336.917969 C 142.257812 333.839844 126.835938 328.230469 112.5 320.082031 L 112.5 290.574219 C 114.816406 289.089844 117.097656 287.570312 119.378906 286.085938 C 130.347656 278.808594 141.027344 271.097656 151.457031 263.097656 C 153.664062 261.394531 155.835938 259.691406 158.046875 257.953125 Z M 158.046875 257.953125 " fill-opacity="1" fill-rule="nonzero"/><path fill="#279b48" d="M 219.957031 202.199219 L 219.957031 336.304688 C 204.96875 339.5625 189.617188 340.539062 174.410156 339.238281 L 174.410156 244.484375 L 181.90625 238.078125 L 185.632812 234.890625 L 189.289062 231.597656 C 191.714844 229.386719 194.140625 227.179688 196.566406 224.972656 C 201.382812 220.519531 206.125 215.992188 210.796875 211.429688 C 213.152344 209.148438 215.46875 206.832031 217.75 204.515625 Z M 219.957031 202.199219 " fill-opacity="1" fill-rule="nonzero"/><path fill="#279b48" d="M 281.109375 130.910156 L 281.109375 307.59375 C 267.132812 318.527344 251.710938 326.671875 235.5625 332.03125 L 235.5625 185.941406 C 236.429688 185.035156 237.261719 184.09375 238.132812 183.152344 C 246.964844 173.449219 255.546875 163.53125 263.800781 153.320312 C 269.703125 146.007812 275.496094 138.511719 281.109375 130.910156 Z M 281.109375 130.910156 " fill-opacity="1" fill-rule="nonzero"/><path fill="#092144" d="M 273.324219 61.71875 C 265.394531 56.796875 257.066406 52.597656 248.488281 49.15625 C 239.871094 45.753906 231 43.109375 221.984375 41.300781 C 212.96875 39.488281 203.808594 38.476562 194.6875 38.332031 C 185.5625 38.148438 176.402344 38.765625 167.421875 40.285156 C 158.445312 41.769531 149.644531 44.015625 141.101562 47.09375 L 137.914062 48.25 C 136.863281 48.648438 135.816406 49.121094 134.765625 49.519531 L 131.652344 50.820312 L 128.574219 52.234375 C 127.558594 52.703125 126.511719 53.175781 125.496094 53.683594 L 122.492188 55.238281 L 120.972656 56 L 120.210938 56.398438 L 119.484375 56.832031 L 116.554688 58.496094 C 108.769531 63.023438 101.417969 68.238281 94.613281 74.101562 C 87.804688 79.929688 81.507812 86.375 75.859375 93.289062 C 70.210938 100.242188 65.214844 107.664062 60.941406 115.449219 C 56.667969 123.269531 53.121094 131.453125 50.371094 139.886719 C 47.617188 148.324219 45.625 156.976562 44.433594 165.773438 C 43.238281 174.535156 42.839844 183.40625 43.238281 192.242188 C 43.996094 209.875 48.050781 227.324219 55.078125 243.4375 C 58.589844 251.472656 62.824219 259.222656 67.710938 266.5 C 70.101562 270.191406 72.746094 273.667969 75.53125 277.070312 C 78.320312 280.472656 81.21875 283.734375 84.292969 286.882812 L 73.179688 285.324219 C 75.929688 283.695312 78.609375 282.105469 81.289062 280.4375 C 83.96875 278.808594 86.648438 277.144531 89.289062 275.441406 C 94.613281 272.074219 99.863281 268.597656 105.039062 265.050781 C 115.429688 257.917969 125.570312 250.460938 135.488281 242.675781 C 140.449219 238.765625 145.375 234.820312 150.1875 230.800781 L 152 229.28125 L 153.773438 227.722656 L 157.359375 224.609375 L 164.527344 218.417969 L 168.109375 215.304688 L 171.621094 212.152344 C 173.976562 210.019531 176.292969 207.917969 178.609375 205.746094 C 183.246094 201.4375 187.804688 197.09375 192.332031 192.640625 C 194.578125 190.429688 196.859375 188.222656 199.066406 185.941406 L 205.65625 179.132812 L 212.246094 172.328125 C 214.417969 170.046875 216.519531 167.65625 218.652344 165.339844 L 225.0625 158.351562 L 228.25 154.839844 L 231.363281 151.292969 C 235.527344 146.550781 239.582031 141.699219 243.597656 136.847656 C 259.675781 117.367188 274.589844 96.984375 288.097656 75.730469 L 294.25 66.027344 L 302.214844 74.066406 C 303.15625 75.007812 304.027344 75.949219 304.859375 76.816406 C 305.691406 77.722656 306.523438 78.628906 307.359375 79.570312 C 309.023438 81.414062 310.617188 83.296875 312.171875 85.21875 C 315.285156 89.054688 318.253906 93.039062 320.972656 97.164062 C 326.472656 105.382812 331.21875 114.144531 335.054688 123.269531 C 342.765625 141.480469 347.039062 161.105469 347.65625 180.800781 C 348.199219 200.496094 345.085938 220.226562 338.496094 238.691406 C 331.90625 257.15625 321.914062 274.355469 309.09375 289.054688 C 302.6875 296.40625 295.664062 303.175781 288.058594 309.222656 C 280.457031 315.230469 272.3125 320.589844 263.765625 325.117188 C 246.675781 334.167969 227.886719 339.886719 208.84375 342.023438 C 189.796875 344.160156 170.429688 342.710938 152.109375 337.789062 C 142.949219 335.324219 134.042969 332.03125 125.53125 327.902344 C 117.0625 323.777344 108.988281 318.890625 101.492188 313.277344 C 109.457031 318.238281 117.820312 322.4375 126.4375 325.875 C 135.089844 329.28125 143.996094 331.921875 153.050781 333.734375 C 162.101562 335.542969 171.296875 336.519531 180.457031 336.628906 C 185.054688 336.703125 189.617188 336.558594 194.179688 336.230469 C 198.742188 335.871094 203.265625 335.324219 207.792969 334.566406 C 212.28125 333.804688 216.734375 332.828125 221.152344 331.707031 C 225.570312 330.546875 229.914062 329.207031 234.1875 327.652344 C 238.457031 326.09375 242.660156 324.355469 246.75 322.4375 C 250.839844 320.519531 254.859375 318.417969 258.769531 316.136719 C 266.589844 311.574219 273.902344 306.253906 280.710938 300.386719 C 287.515625 294.523438 293.78125 288.003906 299.390625 281.015625 L 303.484375 275.695312 C 304.75 273.847656 306.054688 272.039062 307.320312 270.191406 C 308.515625 268.308594 309.746094 266.425781 310.90625 264.507812 L 312.570312 261.609375 L 313.402344 260.164062 L 313.839844 259.4375 L 314.238281 258.679688 C 318.472656 250.820312 321.984375 242.566406 324.699219 234.09375 C 330.132812 217.152344 332.519531 199.230469 331.542969 181.523438 C 330.566406 163.820312 326.402344 146.367188 319.160156 130.257812 C 315.539062 122.21875 311.230469 114.507812 306.234375 107.265625 C 303.738281 103.644531 301.058594 100.132812 298.234375 96.765625 C 296.820312 95.066406 295.375 93.4375 293.890625 91.804688 C 293.128906 91.011719 292.40625 90.175781 291.644531 89.417969 C 290.882812 88.621094 290.125 87.824219 289.398438 87.136719 L 303.554688 85.46875 C 289.941406 107.664062 274.664062 128.808594 258.300781 148.976562 C 254.207031 154.007812 250.007812 159.003906 245.773438 163.890625 L 242.585938 167.550781 L 239.328125 171.167969 L 232.773438 178.375 C 230.566406 180.765625 228.429688 183.191406 226.183594 185.542969 L 212.644531 199.519531 C 210.363281 201.835938 208.082031 204.117188 205.765625 206.398438 C 201.128906 210.921875 196.421875 215.414062 191.679688 219.828125 C 189.292969 222.039062 186.902344 224.210938 184.511719 226.382812 L 180.890625 229.640625 L 177.199219 232.828125 L 169.8125 239.164062 L 166.121094 242.351562 L 164.273438 243.941406 L 162.390625 245.5 C 157.394531 249.628906 152.289062 253.683594 147.148438 257.664062 C 136.867188 265.59375 126.328125 273.269531 115.503906 280.511719 C 110.109375 284.132812 104.605469 287.679688 99.101562 291.117188 C 96.351562 292.820312 93.527344 294.523438 90.738281 296.1875 C 87.953125 297.851562 85.089844 299.484375 82.304688 301.074219 L 76.039062 304.660156 L 71.1875 299.554688 C 67.785156 295.96875 64.5625 292.242188 61.484375 288.367188 C 58.445312 284.492188 55.511719 280.511719 52.867188 276.347656 C 47.472656 268.09375 42.875 259.332031 39.144531 250.207031 C 35.417969 241.082031 32.519531 231.632812 30.492188 222.039062 C 30.203125 220.84375 30.023438 219.613281 29.804688 218.417969 L 29.152344 214.796875 C 28.792969 212.371094 28.464844 209.945312 28.140625 207.519531 C 27.921875 205.058594 27.667969 202.632812 27.488281 200.171875 L 27.308594 196.476562 C 27.269531 195.246094 27.160156 194.015625 27.160156 192.785156 C 26.800781 173.160156 29.984375 153.539062 36.683594 135.179688 C 40.015625 126.019531 44.179688 117.152344 49.140625 108.75 C 54.097656 100.351562 59.855469 92.496094 66.265625 85.179688 C 72.671875 77.902344 79.734375 71.207031 87.300781 65.230469 C 94.902344 59.257812 103.050781 54.007812 111.59375 49.554688 L 114.816406 47.890625 L 115.613281 47.492188 L 116.445312 47.128906 L 118.074219 46.367188 L 121.371094 44.847656 C 122.457031 44.339844 123.578125 43.941406 124.699219 43.472656 L 128.03125 42.132812 L 131.433594 40.9375 C 132.558594 40.539062 133.679688 40.105469 134.835938 39.742188 L 138.277344 38.691406 C 147.472656 35.941406 156.886719 33.984375 166.371094 32.9375 C 185.34375 30.835938 204.640625 32.429688 222.890625 37.316406 C 241.171875 42.203125 258.40625 50.53125 273.324219 61.71875 Z M 273.324219 61.71875 " fill-opacity="1" fill-rule="nonzero"/><path fill="#279b48" d="M 158.625 111.972656 C 155.691406 110.34375 150.082031 107.992188 142.730469 107.992188 C 132.085938 107.992188 127.667969 114.183594 127.667969 119.902344 C 127.667969 127.503906 132.703125 131.234375 144.035156 136.160156 C 158.40625 142.457031 165.324219 150.316406 165.324219 162.589844 C 165.324219 177.542969 154.207031 188.765625 134.113281 188.765625 C 125.714844 188.765625 116.808594 186.304688 112.5 183.40625 L 115.539062 172.074219 C 120.320312 175.007812 127.597656 177.324219 134.945312 177.324219 C 145.589844 177.324219 151.527344 171.820312 151.527344 163.785156 C 151.527344 156.179688 146.964844 151.511719 136.320312 147.054688 C 123 141.699219 113.984375 133.625 113.984375 121.460938 C 113.984375 107.300781 125.316406 96.695312 143.09375 96.695312 C 151.636719 96.695312 158.046875 98.792969 161.917969 100.785156 Z M 158.625 111.972656 " fill-opacity="1" fill-rule="nonzero"/><path fill="#279b48" d="M 133.351562 85.578125 L 144.433594 85.578125 L 144.433594 199.84375 L 133.351562 199.84375 Z M 133.351562 85.578125 " fill-opacity="1" fill-rule="nonzero"/></svg>