<svg xmlns="http://www.w3.org/2000/svg" xmlns:xlink="http://www.w3.org/1999/xlink" width="500" zoomAndPan="magnify" viewBox="0 0 375 374.999991" height="500" preserveAspectRatio="xMidYMid meet" version="1.0"><defs><clipPath id="ce48425cc5"><path d="M 56 93 L 283 93 L 283 319.628906 L 56 319.628906 Z M 56 93 " clip-rule="nonzero"/></clipPath><clipPath id="6c6807dc49"><path d="M 254 55.628906 L 319 55.628906 L 319 121 L 254 121 Z M 254 55.628906 " clip-rule="nonzero"/></clipPath></defs><rect x="-37.5" width="450" fill="#ffffff" y="-37.499999" height="449.999989" fill-opacity="1"/><rect x="-37.5" width="450" fill="#efdcdf" y="-37.499999" height="449.999989" fill-opacity="1"/><g clip-path="url(#ce48425cc5)"><path fill="#ed1c24" d="M 169.105469 93.1875 C 106.644531 93.1875 56.011719 143.875 56.011719 206.40625 C 56.011719 268.9375 106.644531 319.625 169.105469 319.625 C 231.570312 319.625 282.203125 268.9375 282.203125 206.40625 C 282.203125 143.875 231.566406 93.1875 169.105469 93.1875 Z M 169.105469 294.460938 C 120.527344 294.460938 81.144531 255.039062 81.144531 206.40625 C 81.144531 157.773438 120.527344 118.351562 169.105469 118.351562 C 217.6875 118.351562 257.070312 157.773438 257.070312 206.40625 C 257.070312 255.039062 217.6875 294.460938 169.105469 294.460938 Z M 169.105469 143.503906 C 134.410156 143.503906 106.277344 171.664062 106.277344 206.398438 C 106.277344 241.136719 134.410156 269.292969 169.105469 269.292969 C 203.804688 269.292969 231.933594 241.136719 231.933594 206.398438 C 231.933594 171.664062 203.804688 143.503906 169.105469 143.503906 Z M 169.105469 244.140625 C 148.285156 244.140625 131.40625 227.242188 131.40625 206.398438 C 131.40625 185.558594 148.285156 168.660156 169.105469 168.660156 C 189.929688 168.660156 206.804688 185.558594 206.804688 206.398438 C 206.804688 227.242188 189.921875 244.140625 169.105469 244.140625 Z M 181.671875 206.40625 C 181.671875 213.351562 176.046875 218.984375 169.105469 218.984375 C 162.167969 218.984375 156.542969 213.351562 156.542969 206.40625 C 156.542969 199.460938 162.167969 193.828125 169.105469 193.828125 C 176.046875 193.828125 181.671875 199.453125 181.671875 206.40625 Z M 181.671875 206.40625 " fill-opacity="1" fill-rule="nonzero"/></g><path fill="#050041" d="M 266.753906 115.75 L 176.070312 206.527344 C 174.269531 208.328125 171.351562 208.328125 169.550781 206.527344 L 168.238281 205.214844 C 166.441406 203.414062 166.441406 200.492188 168.238281 198.691406 L 258.925781 107.914062 C 259.242188 107.59375 259.757812 107.59375 260.074219 107.914062 L 266.753906 114.597656 C 267.070312 114.917969 267.070312 115.433594 266.753906 115.75 Z M 266.753906 115.75 " fill-opacity="1" fill-rule="nonzero"/><g clip-path="url(#6c6807dc49)"><path fill="#00aeef" d="M 288.074219 86.566406 L 318.976562 89.484375 L 287.96875 120.527344 L 257.0625 117.609375 L 254.148438 86.671875 L 285.15625 55.628906 Z M 288.074219 86.566406 " fill-opacity="1" fill-rule="nonzero"/></g></svg>