<svg xmlns="http://www.w3.org/2000/svg" xmlns:xlink="http://www.w3.org/1999/xlink" width="500" zoomAndPan="magnify" viewBox="0 0 375 374.999991" height="500" preserveAspectRatio="xMidYMid meet" version="1.0"><defs><clipPath id="24f0bfefa0"><path d="M 60.375 37.5 L 314.625 37.5 L 314.625 337.5 L 60.375 337.5 Z M 60.375 37.5 " clip-rule="nonzero"/></clipPath></defs><g clip-path="url(#24f0bfefa0)"><path fill="#092144" d="M 146.734375 258.53125 C 144.621094 257.222656 142.589844 255.847656 140.679688 254.449219 C 114.421875 235.339844 103.035156 206.683594 108.609375 173.761719 C 113.097656 147.277344 140.398438 118.9375 167.035156 113.132812 C 167.09375 113.125 167.148438 113.125 167.207031 113.132812 C 167.425781 113.136719 167.613281 113.214844 167.765625 113.375 C 167.925781 113.53125 168 113.71875 167.992188 113.941406 C 167.992188 114.914062 167.992188 115.898438 167.945312 116.871094 C 167.792969 120.453125 167.871094 124.035156 168.179688 127.605469 C 168.421875 129.898438 170.070312 133.0625 172.039062 133.929688 C 172.664062 134.175781 173.3125 134.289062 173.984375 134.273438 C 175.964844 134.28125 177.738281 133.679688 179.304688 132.46875 C 194.671875 118.324219 209.460938 104.371094 223.253906 91 C 225.601562 88.722656 226.761719 86.398438 226.691406 84.09375 C 226.613281 81.671875 225.1875 79.273438 222.46875 76.933594 L 220.578125 75.324219 C 208.460938 64.972656 195.941406 54.300781 183.527344 43.941406 C 182.8125 43.371094 182.175781 42.738281 181.472656 42.074219 C 179.054688 39.828125 176.582031 37.5 173.355469 37.5 C 171.992188 37.523438 170.71875 37.875 169.53125 38.550781 C 164.164062 41.414062 165.238281 46.320312 166.140625 50.621094 C 166.324219 51.507812 166.511719 52.347656 166.640625 53.167969 C 167.691406 59.8125 166.71875 63.296875 158.359375 65.152344 C 150.832031 66.839844 143.539062 69.238281 136.476562 72.347656 C 129.417969 75.453125 122.71875 79.210938 116.390625 83.621094 C 110.03125 88.015625 104.113281 92.9375 98.636719 98.390625 C 93.160156 103.847656 88.210938 109.742188 83.792969 116.082031 C 65.039062 142.839844 57.171875 174.871094 61.601562 206.277344 C 64.507812 226.726562 71.328125 245 81.878906 260.597656 C 92.203125 275.867188 106.390625 288.996094 124.070312 299.742188 C 124.988281 300.296875 125.933594 300.855469 126.933594 301.457031 L 126.984375 301.496094 C 127.628906 301.871094 128.328125 302.058594 129.074219 302.058594 C 129.609375 302.054688 130.125 301.957031 130.621094 301.757812 C 131.117188 301.5625 131.558594 301.28125 131.949219 300.914062 C 132.339844 300.550781 132.648438 300.125 132.878906 299.644531 C 133.109375 299.164062 133.246094 298.65625 133.285156 298.121094 C 133.398438 296.476562 133.554688 294.828125 133.757812 293.234375 C 134.988281 283.3125 137.734375 274.730469 141.929688 267.742188 C 142.308594 267.113281 142.695312 266.496094 143.113281 265.875 C 144.285156 264.105469 145.589844 262.433594 147.019531 260.863281 C 147.335938 260.515625 147.460938 260.105469 147.398438 259.640625 C 147.347656 259.167969 147.125 258.800781 146.734375 258.53125 Z M 178.335938 110.65625 C 177.851562 104.027344 175.472656 100.941406 170.851562 100.941406 C 169.230469 100.984375 167.648438 101.25 166.105469 101.746094 C 159.285156 103.722656 152.742188 106.371094 146.472656 109.699219 C 140.203125 113.027344 134.339844 116.960938 128.882812 121.5 C 123.777344 125.730469 119.191406 130.460938 115.113281 135.6875 C 111.039062 140.914062 107.574219 146.515625 104.714844 152.496094 C 94.050781 175.023438 93.597656 200.511719 103.527344 224.285156 C 105.082031 228.078125 106.890625 231.746094 108.949219 235.289062 C 111.007812 238.832031 113.296875 242.21875 115.820312 245.445312 C 118.34375 248.675781 121.074219 251.71875 124.015625 254.574219 C 126.953125 257.429688 130.074219 260.070312 133.375 262.496094 C 133.542969 262.617188 133.644531 262.78125 133.6875 262.980469 C 133.726562 263.183594 133.695312 263.371094 133.589844 263.546875 C 129.46875 270.800781 126.714844 278.539062 125.332031 286.761719 C 125.296875 286.953125 125.203125 287.109375 125.050781 287.234375 C 124.902344 287.359375 124.730469 287.421875 124.535156 287.421875 C 124.386719 287.429688 124.246094 287.394531 124.113281 287.320312 C 86.28125 262.222656 65.976562 217.886719 72.382812 174.316406 C 79.574219 125.238281 113.777344 87.441406 161.628906 75.644531 C 177.085938 71.859375 177.25 71.636719 177.800781 55.8125 C 177.800781 55.703125 178.023438 55.46875 178.144531 55.332031 C 178.304688 55.15625 178.503906 55.070312 178.738281 55.074219 C 178.933594 55.074219 179.109375 55.132812 179.261719 55.257812 L 192.984375 67.027344 L 212.675781 83.90625 C 212.855469 84.0625 212.949219 84.261719 212.949219 84.5 C 212.957031 84.738281 212.875 84.9375 212.703125 85.101562 L 183.234375 113.15625 L 179.726562 116.492188 C 179.574219 116.640625 179.394531 116.714844 179.183594 116.71875 C 178.949219 116.71875 178.75 116.632812 178.589844 116.46875 C 178.433594 116.3125 178.359375 116.125 178.367188 115.902344 L 178.367188 115.300781 C 178.421875 113.484375 178.445312 112.050781 178.335938 110.65625 Z M 311.429688 163.203125 C 303.070312 125.738281 281.488281 97.757812 247.335938 80.035156 C 245.28125 78.960938 243.132812 77.886719 240.941406 76.898438 C 240.664062 76.761719 240.371094 76.695312 240.0625 76.699219 C 239.441406 76.703125 238.929688 76.941406 238.523438 77.414062 C 238.105469 77.882812 237.941406 78.425781 238.03125 79.046875 C 238.425781 82.0625 238.492188 85.085938 238.230469 88.117188 C 237.578125 95.988281 234.945312 104.136719 230.398438 112.453125 C 229.519531 114.042969 228.566406 115.652344 227.535156 117.242188 C 227.1875 117.789062 226.957031 118.382812 226.847656 119.023438 C 226.738281 119.667969 226.757812 120.304688 226.90625 120.9375 C 227.058594 121.597656 227.332031 122.199219 227.726562 122.75 C 228.125 123.296875 228.609375 123.75 229.1875 124.101562 L 229.226562 124.101562 C 230.285156 124.75 231.335938 125.429688 232.347656 126.125 C 265.339844 148.53125 276.839844 188.179688 260.3125 222.554688 C 249.402344 245.257812 231.625 259.496094 205.976562 266.0625 C 205.890625 265.230469 205.824219 264.449219 205.769531 263.691406 C 205.714844 262.015625 205.457031 260.371094 205 258.761719 C 204.757812 258.042969 204.523438 257.242188 204.285156 256.390625 C 203.226562 252.8125 202.136719 249.144531 200.257812 248.765625 C 199.757812 248.671875 199.257812 248.625 198.753906 248.632812 C 195.582031 248.632812 191.414062 250.335938 188.859375 252.691406 C 180.269531 260.5625 171.929688 268.894531 163.804688 276.964844 C 161.042969 279.71875 158.1875 282.5625 155.359375 285.351562 C 151.78125 288.851562 150.269531 291.636719 150.347656 294.394531 C 150.425781 297.019531 152.058594 299.640625 155.480469 302.617188 C 170.113281 315.386719 182.332031 325.710938 193.921875 335.09375 C 196.007812 336.609375 198.34375 337.414062 200.921875 337.507812 C 201.699219 337.546875 202.433594 337.378906 203.121094 337.007812 C 205.617188 335.417969 207.285156 331.222656 207.644531 327.90625 C 207.945312 325.152344 207.4375 322.332031 206.890625 319.316406 C 206.675781 318.085938 206.449219 316.820312 206.269531 315.515625 C 207.128906 315.273438 207.90625 315.03125 208.644531 314.800781 C 210.183594 314.328125 211.507812 313.929688 212.855469 313.632812 C 221.425781 311.808594 229.734375 309.164062 237.785156 305.699219 C 245.832031 302.234375 253.46875 298.015625 260.683594 293.046875 C 267.621094 288.277344 274.015625 282.863281 279.867188 276.8125 C 285.71875 270.757812 290.910156 264.1875 295.445312 257.09375 C 313.089844 229.402344 318.816406 196.066406 311.429688 163.203125 Z M 196.183594 308.378906 C 194.679688 310.414062 194.980469 313.457031 196.023438 319.917969 C 196.132812 320.585938 196.277344 321.214844 196.519531 322.253906 C 196.597656 322.582031 196.683594 322.96875 196.777344 323.371094 L 178.515625 307.722656 L 163.339844 294.671875 L 187.027344 270.457031 L 194.472656 262.847656 C 194.578125 263.511719 194.699219 264.191406 194.816406 264.851562 C 195.226562 266.921875 195.488281 269.007812 195.609375 271.113281 C 195.773438 275.554688 197.820312 277.707031 201.878906 277.707031 C 202.6875 277.703125 203.488281 277.636719 204.285156 277.507812 C 205.722656 277.253906 207.132812 276.90625 208.523438 276.46875 L 209.871094 276.082031 C 228.851562 270.855469 245.230469 260.835938 257.257812 247.035156 C 260.292969 243.550781 263.027344 239.84375 265.460938 235.914062 C 267.894531 231.984375 269.992188 227.882812 271.757812 223.613281 C 273.523438 219.339844 274.929688 214.953125 275.980469 210.453125 C 277.027344 205.953125 277.707031 201.394531 278.015625 196.785156 C 279.210938 180.011719 276.347656 164.679688 269.503906 151.199219 C 262.855469 138.109375 252.402344 126.675781 238.4375 117.214844 C 242.78125 109.621094 245.671875 101.507812 247.097656 92.875 C 290.382812 117.816406 312.503906 168.257812 300.898438 215.746094 C 289.402344 262.804688 257.90625 292.546875 207.300781 304.144531 C 201.101562 305.539062 197.714844 306.3125 196.175781 308.378906 Z M 196.183594 308.378906 " fill-opacity="1" fill-rule="nonzero"/></g></svg>